<?xml version="1.0" ?><svg style="enable-background:new 0 0 512 512;" version="1.1" viewBox="0 0 512 512" xml:space="preserve" xmlns="http://www.w3.org/2000/svg" xmlns:xlink="http://www.w3.org/1999/xlink"><style type="text/css">
	.st0{fill:#16ADE1;}
	.st1{fill:#1B3954;}
</style><g id="Layer_1"/><g id="Layer_2"><g><g><path class="st1" d="M184.3,261H40.9c-2.8,0-5-2.2-5-5c0-113.2,92.1-205.3,205.3-205.3c2.8,0,5,2.2,5,5v143.4c0,2.8-2.2,5-5,5     c-28.6,0-51.9,23.3-51.9,51.9C189.3,258.8,187.1,261,184.3,261z M46,251h133.5c2.4-30.1,26.5-54.2,56.7-56.7V60.8     C132.4,63.4,48.6,147.3,46,251z"/></g><g><path class="st1" d="M241.2,317.9c-34.1,0-61.9-27.8-61.9-61.9c0-34.1,27.8-61.9,61.9-61.9c34.1,0,61.9,27.8,61.9,61.9     C303,290.1,275.3,317.9,241.2,317.9z M241.2,204.1c-28.6,0-51.9,23.3-51.9,51.9c0,28.6,23.3,51.9,51.9,51.9     c28.6,0,51.9-23.3,51.9-51.9C293,227.4,269.8,204.1,241.2,204.1z"/></g><g><path class="st1" d="M241.2,461.3C128,461.3,35.9,369.2,35.9,256c0-2.8,2.2-5,5-5h143.4c2.8,0,5,2.2,5,5     c0,28.6,23.3,51.9,51.9,51.9c28.6,0,51.9-23.3,51.9-51.9c0-28.6-23.3-51.9-51.9-51.9c-2.8,0-5-2.2-5-5V55.7c0-2.8,2.2-5,5-5     c57.9,0,113.4,24.6,152.2,67.6c0.8,0.9,1.3,2.1,1.3,3.4v18.7c0,7.6,6.2,13.7,13.7,13.7h8.1c1.9,0,3.6,1.1,4.5,2.8     c0,0,0,0.1,0.1,0.1c0.3,0.7,0.5,1.4,0.5,2.2v157.7c0,1.8-1,3.5-2.6,4.4l-114.8,63.3c-1.6,0.9-3.6,0.8-5.2-0.2     c-4.1-2.7-8.9-4.1-13.8-4.1c-13.9,0-25.2,11.3-25.2,25.2s11.3,25.2,25.2,25.2c13.9,0,25.1-11.3,25.1-25.2c0-0.2,0-0.4,0-0.6     c-0.2-2,0.8-3.8,2.6-4.8l104.4-57.6c1.9-1.1,4.3-0.7,5.9,0.8c1.6,1.5,2,3.9,1,5.9c-1,2-2.1,4-3.2,6.1     C384.7,420.6,315.9,461.3,241.2,461.3z M46,261c2.7,105.4,89.2,190.3,195.2,190.3c67.4,0,129.8-34.8,165.5-91.5l-86.4,47.7     c-1,18.5-16.4,33.2-35.1,33.2c-19.4,0-35.2-15.8-35.2-35.2s15.8-35.2,35.2-35.2c5.9,0,11.6,1.4,16.7,4.2L411.5,314V164.1h-3.1     c-13.1,0-23.7-10.6-23.7-23.7v-16.8c-35.8-38.8-85.9-61.4-138.5-62.8v133.5C278,196.9,303,223.6,303,256     c0,34.1-27.8,61.9-61.9,61.9c-32.4,0-59.1-25.1-61.7-56.9H46z"/></g><g><path class="st1" d="M238.1,437.3C238.1,437.3,238.1,437.3,238.1,437.3c-43.5-0.7-85.2-17.1-117.7-46.1     c-32.2-28.8-53.1-68-58.9-110.5c-0.4-2.7,1.5-5.3,4.3-5.6c2.8-0.4,5.3,1.5,5.6,4.3c11.3,82.9,83,146.5,166.8,147.9     c2.8,0,5,2.3,4.9,5.1C243.1,435.1,240.9,437.3,238.1,437.3z"/></g><g><path class="st0" d="M184.3,261H40.9c-2.8,0-5-2.2-5-5c0-113.2,92.1-205.3,205.3-205.3c2.8,0,5,2.2,5,5v143.4c0,2.8-2.2,5-5,5     c-28.6,0-51.9,23.3-51.9,51.9C189.3,258.8,187.1,261,184.3,261z M46,251h133.5c2.4-30.1,26.5-54.2,56.7-56.7V60.8     C132.4,63.4,48.6,147.3,46,251z"/></g><g><path class="st0" d="M285.2,440.6c-19.4,0-35.2-15.8-35.2-35.2s15.8-35.2,35.2-35.2c5.9,0,11.6,1.4,16.7,4.2L411.5,314V164.1     h-3.1c-13.1,0-23.7-10.6-23.7-23.7V74.5c0-13.1,10.6-23.7,23.7-23.7h43.9c13.1,0,23.7,10.6,23.7,23.7v65.9     c0,13.1-10.6,23.7-23.7,23.7h-3.1v169.1c0,1.8-1,3.5-2.6,4.4l-126.4,69.8C319.2,425.9,303.9,440.6,285.2,440.6z M285.2,380.3     c-13.9,0-25.2,11.3-25.2,25.2c0,13.9,11.3,25.2,25.2,25.2c13.9,0,25.1-11.3,25.1-25.2c0-0.2,0-0.4,0-0.6c-0.2-2,0.8-3.8,2.6-4.8     l126.4-69.7V159.1c0-2.8,2.2-5,5-5h8.1c7.6,0,13.7-6.2,13.7-13.7V74.5c0-7.6-6.2-13.7-13.7-13.7h-43.9c-7.6,0-13.7,6.2-13.7,13.7     v65.9c0,7.6,6.2,13.7,13.7,13.7h8.1c2.8,0,5,2.2,5,5v157.8c0,1.8-1,3.5-2.6,4.4l-114.8,63.3c-1.6,0.9-3.6,0.8-5.2-0.2     C294.9,381.7,290.1,380.3,285.2,380.3z"/></g></g></g></svg>